<svg xmlns="http://www.w3.org/2000/svg" width="1600" height="900" viewBox="0 0 1600 900" fill="none">
<rect width="1600" height="900" fill="#FEFCFF"/>
<rect x="24" y="24" width="1552" height="852" rx="28" fill="#FEFCFF" stroke="#0F0D0D" stroke-opacity="0.08"/>
<line x1="72" y1="118" x2="1528" y2="118" stroke="#0F0D0D" stroke-opacity="0.08"/>
<line x1="72" y1="782" x2="1528" y2="782" stroke="#0F0D0D" stroke-opacity="0.08"/>
<circle cx="90" cy="90" r="5" fill="#0F0D0D" fill-opacity="0.12"/>
<circle cx="1510" cy="810" r="5" fill="#0F0D0D" fill-opacity="0.12"/>
<rect x="210" y="230" width="420" height="410" rx="34" fill="#FEFCFF" stroke="#0F0D0D" stroke-opacity="0.16"/>
<rect x="970" y="230" width="420" height="410" rx="34" fill="#FEFCFF" stroke="#0F0D0D" stroke-opacity="0.1"/>
<rect x="260" y="280" width="320" height="78" rx="20" fill="#F3F3F3" fill-opacity="1"/>
<rect x="260" y="386" width="320" height="78" rx="20" fill="#EDBFFF" fill-opacity="0.36"/>
<rect x="260" y="492" width="320" height="78" rx="20" fill="#F3F3F3" fill-opacity="1"/>
<rect x="1022" y="280" width="128" height="128" rx="26" fill="#FEFCFF" stroke="#0F0D0D" stroke-opacity="0.14"/>
<rect x="1174" y="280" width="128" height="128" rx="26" fill="#FEFCFF" stroke="#0F0D0D" stroke-opacity="0.14"/>
<rect x="1098" y="442" width="128" height="128" rx="26" fill="#EDBFFF" stroke="#0F0D0D" stroke-opacity="0.14"/>
<path d="M632 438H772C808 438 826 402 856 402H968" stroke="#0F0D0D" stroke-width="3" stroke-linecap="round" stroke-opacity="0.22"/>
<path d="M632 466H752C790 466 814 510 856 510H968" stroke="#EDBFFF" stroke-width="6" stroke-linecap="round" stroke-opacity="0.72"/>
</svg>